/kaggle/working/opencap-processing/OpenCapData_ab7eb7cf-817d-4035-a30b-ee68773906cb/OpenSimData/Dynamics/Suhasno_3/GRF_resultant_Suhasno_3_Suhasno_3_window_1.mot
version=1
nRows=20
nColumns=19
inDegrees=yes
endheader 
time	ground_force_right_vx	ground_force_right_vy	ground_force_right_vz	ground_force_right_px	ground_force_right_py	ground_force_right_pz	ground_torque_right_x	ground_torque_right_y	ground_torque_right_z	ground_force_left_vx	ground_force_left_vy	ground_force_left_vz	ground_force_left_px	ground_force_left_py	ground_force_left_pz	ground_torque_left_x	ground_torque_left_y	ground_torque_left_z	
          1.00000000	        -12.57217977	         21.13021074	         18.56134098	          1.24973864	          0.00000000	          0.13778639	          0.00000000	          0.00220642	          0.00000000	        134.56557914	        574.63984546	        -44.87856146	          1.31749231	          0.00000000	         -0.05267192	          0.00000000	          1.45233340	          0.00000000	
          1.05000000	         -1.66307789	          1.24122059	          0.55719807	          1.26647473	          0.00000000	          0.10735229	          0.00000000	         -0.00216705	          0.00000000	        129.73134564	        573.27930218	        -26.05116307	          1.34247022	          0.00000000	         -0.06262149	          0.00000000	          0.29979240	          0.00000000	
          1.10000000	         -0.28377149	          0.15698767	          0.06874998	          1.34163627	          0.00000000	          0.08122010	          0.00000000	          0.00004385	          0.00000000	         41.21830329	        559.62729175	         46.20625146	          1.35808014	          0.00000000	         -0.07194749	          0.00000000	          1.26305812	          0.00000000	
          1.15000000	         -0.02163675	          0.01082692	          0.00502780	          1.32475407	          0.00000000	          0.03118885	          0.00000000	          0.00000591	          0.00000000	         20.30661770	         59.94394694	        -58.06762622	          1.39934629	          0.00000000	         -0.10506302	          0.00000000	          0.02994126	          0.00000000	
          1.20000000	         -5.60166560	          3.10201201	          1.52248473	          1.41305595	          0.00000000	          0.00573096	          0.00000000	          0.00007327	          0.00000000	        -29.18963596	        505.93188132	         25.49759826	          1.35484276	          0.00000000	         -0.06959461	          0.00000000	          1.81960545	          0.00000000	
          1.25000000	       -126.09748131	         92.43351332	         36.37332337	          1.48202217	          0.00000000	         -0.01157652	          0.00000000	          0.00255536	          0.00000000	        133.54904881	        628.55833202	        -18.76694631	          1.35251933	          0.00000000	         -0.06946600	          0.00000000	         -1.48234289	          0.00000000	
          1.30000000	       -101.05500916	        156.12854177	         75.59765358	          1.51683345	          0.00000000	         -0.02169500	          0.00000000	         -0.00906517	          0.00000000	        230.12503158	        406.85885545	        -54.48403847	          1.35625276	          0.00000000	         -0.07137536	          0.00000000	         -0.71419792	          0.00000000	
          1.35000000	        -13.72527388	        198.24000006	         11.61248033	          1.52819355	          0.00000000	         -0.02500259	          0.00000000	          0.18574821	          0.00000000	        100.81914628	        319.60605106	        -22.12481932	          1.36442250	          0.00000000	         -0.07403664	          0.00000000	          0.88207935	          0.00000000	
          1.40000000	        -64.43210274	        175.61863669	         58.99794721	          1.53804977	          0.00000000	         -0.02003812	          0.00000000	          0.68183097	          0.00000000	        133.77713308	        186.56031397	       -124.13673762	          1.37799885	          0.00000000	         -0.07341159	          0.00000000	          0.00453234	          0.00000000	
          1.45000000	        -45.73098596	        562.34226752	        154.95976440	          1.57437737	          0.00000000	         -0.00670897	          0.00000000	          5.50815054	          0.00000000	         89.61567787	        442.65722524	        -84.86151659	          1.38401290	          0.00000000	         -0.04934923	          0.00000000	         -2.79333249	          0.00000000	
          1.50000000	        135.36481632	       1272.67898495	        112.19559567	          1.60176517	          0.00000000	          0.01011383	          0.00000000	         -8.49001967	          0.00000000	         37.98020463	        500.29017129	          4.44724546	          1.39357890	          0.00000000	         -0.03874546	          0.00000000	         -3.33946777	          0.00000000	
          1.55000000	         -0.00000000	         -0.00000000	          0.00000000	          0.00000000	          0.00000000	          0.00000000	          0.00000000	         -0.00000000	          0.00000000	         -0.00000000	         -0.00000000	          0.00000000	          0.00000000	          0.00000000	          0.00000000	          0.00000000	          0.00000000	          0.00000000	
          1.60000000	         -0.00000000	         -0.00000000	          0.00000000	          0.00000000	          0.00000000	          0.00000000	          0.00000000	         -0.00000000	          0.00000000	          0.00000000	         -0.00000000	          0.00000000	          0.00000000	          0.00000000	          0.00000000	          0.00000000	          0.00000000	          0.00000000	
          1.65000000	          0.00000000	          0.00000000	         -0.00000000	          1.64678435	          0.00000000	          0.13667784	          0.00000000	         -0.00000000	          0.00000000	         -0.00000000	         -0.00000000	         -0.00000000	          0.00000000	          0.00000000	          0.00000000	          0.00000000	          0.00000000	          0.00000000	
          1.70000000	          0.00000000	         -0.00000000	          0.00000000	          0.00000000	          0.00000000	          0.00000000	          0.00000000	         -0.00000000	          0.00000000	         -0.00000000	         -0.00000000	         -0.00000000	          0.00000000	          0.00000000	          0.00000000	          0.00000000	          0.00000000	          0.00000000	
          1.75000000	         -0.00000000	         -0.00000000	         -0.00000000	          0.00000000	          0.00000000	          0.00000000	          0.00000000	          0.00000000	          0.00000000	         -0.00000000	         -0.00000000	         -0.00000000	          0.00000000	          0.00000000	          0.00000000	          0.00000000	          0.00000000	          0.00000000	
          1.80000000	         -0.00000000	          0.00000000	          0.00000000	          1.77527208	          0.00000000	          0.16723780	          0.00000000	         -0.00000000	          0.00000000	         -0.00000000	          0.00000000	         -0.00000000	          1.86740934	          0.00000000	          0.13661838	          0.00000000	         -0.00000000	          0.00000000	
          1.85000000	         -0.00019050	          0.00015938	          0.00006208	          1.79519442	          0.00000000	          0.18209758	          0.00000000	         -0.00000010	          0.00000000	         -0.00000000	          0.00000000	         -0.00000000	          1.96296799	          0.00000000	          0.17689288	          0.00000000	         -0.00000000	          0.00000000	
          1.90000000	       -227.08496446	        221.71859373	         74.01121798	          1.81746715	          0.00000000	          0.16602820	          0.00000000	         -0.02852368	          0.00000000	         -0.00023743	          0.00012432	         -0.00002077	          2.00925023	          0.00000000	          0.20318433	          0.00000000	         -0.00000011	          0.00000000	
          1.95000000	        329.82258716	       1396.37135001	       -292.07118302	          1.81929794	          0.00000000	          0.13560035	          0.00000000	         15.17555576	          0.00000000	       -155.80244134	        131.73875147	       -101.98669435	          2.04463049	          0.00000000	          0.23156843	          0.00000000	          0.03165232	          0.00000000	
